{"title":"The Warriors Way (2010) PPVRIP IFLIX","uid":6211315,"size":1261602357,"categoryP":"video","categoryS":"movies","magnet":"?xt=urn:btih:72d50786fbf1e8972b2f1d97ae01848ff78aa199&amp;dn=The+Warriors+Way+%282010%29+PPVRIP+IFLIX&amp;tr=udp%3A%2F%2Ftracker.openbittorrent.com%3A80&amp;tr=udp%3A%2F%2Fopen.demonii.com%3A1337&amp;tr=udp%3A%2F%2Ftracker.coppersurfer.tk%3A6969&amp;tr=udp%3A%2F%2Fexodus.desync.com%3A6969","seeders":1,"leechers":0,"uploader":"IwannaFan2","files":-1,"time":1298995997,"description":"The Warriors Way (2010) PPVRip Iflix &lt;a href=&quot;\nhttp://www.imdb.com/title/tt1032751/&quot; rel=&quot;nofollow&quot; target=&quot;_NEW&quot;&gt;\nhttp://www.imdb.com/title/tt1032751/&lt;/a&gt;\n\n[IMG]http://www.leetleech.org/images/38953855706474883089.jpg[/IMG]\n[IMG]http://img855.imageshack.us/img855/6320/33164872.png[/IMG]\n[IMG]http://img689.imageshack.us/img689/9577/18154713.png[/IMG]\n[IMG]http://img16.imageshack.us/img16/3755/21739300.png[/IMG]\n\nTrailer:\n\nMedia Info:\nFormat                           : AVI\nFormat/Info                      : Audio Video Interleave\nFormat profile                   : OpenDML\nFile size                        : 1.17 GiB\nDuration                         : 1h 38mn\nOverall bit rate                 : 1 696 Kbps\n\nVideo\nID                               : 0\nFormat                           : MPEG-4 Visual\nFormat profile                   : Simple@L3\nFormat settings, BVOP            : No\nFormat settings, QPel            : No\nFormat settings, GMC             : No warppoints\nFormat settings, Matrix          : Default (H.263)\nCodec ID                         : XVID\nCodec ID/Hint                    : XviD\nDuration                         : 1h 38mn\nBit rate                         : 1 550 Kbps\nWidth                            : 720 pixels\nHeight                           : 480 pixels\nDisplay aspect ratio             : 1.500\nFrame rate                       : 29.970 fps\nOriginal frame rate              : 29.000 fps\nStandard                         : NTSC\nResolution                       : 24 bits\nColorimetry                      : 4:2:0\nScan type                        : Progressive\nBits/(Pixel*Frame)               : 0.150\nStream size                      : 1.07 GiB (91%)\nWriting library                  : XviD 1.2.1 (UTC 2008-12-04)\n\nAudio\nID                               : 1\nFormat                           : MPEG Audio\nFormat version                   : Version 1\nFormat profile                   : Layer 3\nFormat_Settings_Mode             : Joint stereo / MS Stereo\nCodec ID                         : 55\nCodec ID/Hint                    : MP3\nDuration                         : 1h 38mn\nBit rate mode                    : Constant\nBit rate                         : 128 Kbps\nChannel(s)                       : 2 channels\nSampling rate                    : 44.1 KHz\nResolution                       : 16 bits\nStream size                      : 90.5 MiB (8%)\nAlignment                        : Aligned on interleaves\nInterleave, duration             : 26 ms (0.78 video frame)\nWriting library                  : LAME3.98.2\n\nRelease notes...\n\nAnother quality release from IFLIX\nMore to come very soon!\n","torrent":{"xt":"urn:btih:72d50786fbf1e8972b2f1d97ae01848ff78aa199","amp;dn":"The+Warriors+Way+%282010%29+PPVRIP+IFLIX","amp;tr":["udp%3A%2F%2Ftracker.openbittorrent.com%3A80","udp%3A%2F%2Fopen.demonii.com%3A1337","udp%3A%2F%2Ftracker.coppersurfer.tk%3A6969","udp%3A%2F%2Fexodus.desync.com%3A6969"],"infoHash":"72d50786fbf1e8972b2f1d97ae01848ff78aa199","infoHashBuffer":{"type":"Buffer","data":[114,213,7,134,251,241,232,151,43,47,29,151,174,1,132,143,247,138,161,153]},"announce":[],"urlList":[]}}